<?xml version="1.0" encoding="utf-8"?>
<svg version="1.1" xmlns:xlink="http://www.w3.org/1999/xlink" width="8px" height="10px" preserveAspectRatio="xMidYMin meet" viewBox="453 747  6 10" xmlns="http://www.w3.org/2000/svg">
  <path d="M 320 752  L 369 752  A 1 1 0 0 0 370 751 A 1 1 0 0 1 371 750 L 392 750  A 3 3 0 0 1 395 747 A 3 3 0 0 1 398 750 L 456 750  A 1 1 0 0 1 457 751 A 1 1 0 0 0 458 752 L 458 752  " stroke-width="2" stroke="#ec808d" fill="none" />
  <path d="M 452.892893218813 747.707106781187  L 457.185786437627 752  L 452.892893218813 756.292893218813  L 454.307106781187 757.707106781187  L 459.307106781187 752.707106781187  L 460.014213562373 752  L 459.307106781187 751.292893218813  L 454.307106781187 746.292893218813  L 452.892893218813 747.707106781187  Z " fill-rule="nonzero" fill="#ec808d" stroke="none" />
</svg>